<svg xmlns="http://www.w3.org/2000/svg" version="1.1" xmlns:xlink="http://www.w3.org/1999/xlink" width="512" height="512" x="0" y="0" viewBox="0 0 24 24" style="enable-background:new 0 0 512 512" xml:space="preserve" class=""><g><g data-name="Layer 2"><path fill="#2196f3" d="M15.14 20 12 22l-4-3a12.22 12.22 0 0 1-4.89-9.78V5.33a21.29 21.29 0 0 0 4.45-1.11A22 22 0 0 0 12 2a22 22 0 0 0 4.44 2.22 21.29 21.29 0 0 0 4.45 1.11v4.34A12.21 12.21 0 0 1 15.14 20z" opacity="1" data-original="#2196f3" class=""></path><path fill="#51b7fc" d="M20.89 5.33v4.34A12.21 12.21 0 0 1 15.14 20L12 22V2a22 22 0 0 0 4.44 2.22 21.29 21.29 0 0 0 4.45 1.11z" opacity="1" data-original="#176ca5" class=""></path></g></g></svg>